<?xml version="1.0" encoding="UTF-8"?>
<svg version="1.1" xmlns="http://www.w3.org/2000/svg" width="512" height="512">
<path d="M0 0 C1.60065493 -0.00417894 3.2013069 -0.00965953 4.80195343 -0.01631981 C9.17587293 -0.03071962 13.54960311 -0.02654687 17.92353272 -0.019153 C22.65030302 -0.01441005 27.37703303 -0.02694113 32.10379028 -0.03717041 C41.35438808 -0.05434169 50.60491791 -0.05520188 59.85552751 -0.04995751 C67.37661401 -0.04591146 74.89768047 -0.04736453 82.41876602 -0.05270576 C83.4903624 -0.05345419 84.56195877 -0.05420261 85.66602776 -0.05497371 C87.84317239 -0.05650523 90.02031701 -0.05804358 92.19746162 -0.05958868 C112.6013075 -0.07330768 133.005115 -0.06788024 153.40896 -0.05640347 C172.06191185 -0.04647177 190.71476449 -0.05941175 209.36770104 -0.08333766 C228.53652273 -0.10773939 247.70529823 -0.11733388 266.87413514 -0.11068493 C277.62958863 -0.1071951 288.38496584 -0.10940923 299.14040756 -0.12693596 C308.29621746 -0.14167135 317.45189736 -0.14227586 326.60770474 -0.12486505 C331.27568735 -0.11636373 335.94343785 -0.11418428 340.61140823 -0.1295166 C344.8912126 -0.14339952 349.1705868 -0.13855452 353.45036651 -0.11927737 C354.99198032 -0.11552807 356.53362889 -0.11840823 358.07521163 -0.12888902 C375.61209171 -0.23956404 390.08712586 4.44874187 403.03469849 16.38768005 C415.96016658 30.19289205 419.50124474 44.89227553 419.42237854 63.35298157 C419.42655748 64.9536365 419.43203807 66.55428847 419.43869835 68.154935 C419.45309816 72.52885449 419.44892541 76.90258468 419.44153154 81.27651429 C419.43678859 86.00328459 419.44931967 90.7300146 419.45954895 95.45677185 C419.47672023 104.70736965 419.47758042 113.95789948 419.47233605 123.20850907 C419.46829 130.72959558 419.46974307 138.25066204 419.4750843 145.77174759 C419.47583273 146.84334396 419.47658115 147.91494034 419.47735225 149.01900933 C419.47888377 151.19615395 419.48042212 153.37329857 419.48196722 155.55044319 C419.49568622 175.95428906 419.49025878 196.35809657 419.47878201 216.76194157 C419.46885031 235.41489342 419.48179029 254.06774606 419.5057162 272.72068261 C419.53011793 291.88950429 419.53971242 311.0582798 419.53306347 330.2271167 C419.52957364 340.9825702 419.53178777 351.73794741 419.5493145 362.49338913 C419.56404989 371.64919903 419.5646544 380.80487892 419.54724359 389.96068631 C419.53874227 394.62866892 419.53656282 399.29641941 419.55189514 403.9643898 C419.56577806 408.24419417 419.56093306 412.52356837 419.54165591 416.80334808 C419.53790661 418.34496189 419.54078677 419.88661046 419.55126756 421.4281932 C419.66194258 438.96507328 414.97363667 453.44010743 403.03469849 466.38768005 C389.22948649 479.31314815 374.53010301 482.85422631 356.06939697 482.77536011 C354.46874204 482.77953905 352.86809007 482.78501963 351.26744354 482.79167992 C346.89352405 482.80607972 342.51979386 482.80190698 338.14586425 482.79451311 C333.41909395 482.78977016 328.69236394 482.80230124 323.96560669 482.81253052 C314.71500889 482.8297018 305.46447906 482.83056199 296.21386947 482.82531761 C288.69278296 482.82127156 281.1717165 482.82272464 273.65063095 482.82806587 C272.04323639 482.82918851 272.04323639 482.82918851 270.40336921 482.83033382 C268.22622459 482.83186534 266.04907997 482.83340369 263.87193535 482.83494879 C243.46808948 482.84866779 223.06428197 482.84324035 202.66043697 482.83176357 C184.00748513 482.82183188 165.35463248 482.83477186 146.70169593 482.85869776 C127.53287425 482.8830995 108.36409874 482.89269398 89.19526184 482.88604504 C78.43980834 482.88255521 67.68443113 482.88476933 56.92898941 482.90229607 C47.77317951 482.91703145 38.61749962 482.91763597 29.46169223 482.90022516 C24.79370962 482.89172383 20.12595913 482.88954439 15.45798874 482.90487671 C11.17818437 482.91875963 6.89881017 482.91391463 2.61903046 482.89463747 C1.07741665 482.89088818 -0.46423192 482.89376833 -2.00581466 482.90424912 C-19.54269474 483.01492415 -34.01772889 478.32661824 -46.96530151 466.38768005 C-59.89076961 452.58246805 -63.43184777 437.88308457 -63.35298157 419.42237854 C-63.35716051 417.82172361 -63.36264109 416.22107164 -63.36930138 414.62042511 C-63.38370118 410.24650561 -63.37952844 405.87277543 -63.37213457 401.49884582 C-63.36739162 396.77207552 -63.3799227 392.04534551 -63.39015198 387.31858826 C-63.40732326 378.06799046 -63.40818345 368.81746063 -63.40293907 359.56685103 C-63.39889302 352.04576453 -63.4003461 344.52469807 -63.40568733 337.00361252 C-63.40643575 335.93201614 -63.40718418 334.86041977 -63.40795528 333.75635078 C-63.4094868 331.57920615 -63.41102515 329.40206153 -63.41257025 327.22491692 C-63.42628925 306.82107104 -63.42086181 286.41726354 -63.40938503 266.01341854 C-63.39945334 247.36046669 -63.41239332 228.70761405 -63.43631922 210.0546775 C-63.46072096 190.88585581 -63.47031544 171.71708031 -63.4636665 152.5482434 C-63.46017667 141.79278991 -63.46239079 131.0374127 -63.47991753 120.28197098 C-63.49465291 111.12616108 -63.49525743 101.97048118 -63.47784662 92.8146738 C-63.46934529 88.14669119 -63.46716585 83.47894069 -63.48249817 78.81097031 C-63.49638109 74.53116594 -63.49153609 70.25179174 -63.47225893 65.97201203 C-63.46850964 64.43039822 -63.47138979 62.88874965 -63.48187058 61.34716691 C-63.59254561 43.81028683 -58.9042397 29.33525268 -46.96530151 16.38768005 C-33.16008951 3.46221196 -18.46070603 -0.0788662 0 0 Z " fill="#488FF7" transform="translate(77.96530151367188,14.612319946289063)"/>
<path d="M0 0 C1.60065493 -0.00417894 3.2013069 -0.00965953 4.80195343 -0.01631981 C9.17587293 -0.03071962 13.54960311 -0.02654687 17.92353272 -0.019153 C22.65030302 -0.01441005 27.37703303 -0.02694113 32.10379028 -0.03717041 C41.35438808 -0.05434169 50.60491791 -0.05520188 59.85552751 -0.04995751 C67.37661401 -0.04591146 74.89768047 -0.04736453 82.41876602 -0.05270576 C83.4903624 -0.05345419 84.56195877 -0.05420261 85.66602776 -0.05497371 C87.84317239 -0.05650523 90.02031701 -0.05804358 92.19746162 -0.05958868 C112.6013075 -0.07330768 133.005115 -0.06788024 153.40896 -0.05640347 C172.06191185 -0.04647177 190.71476449 -0.05941175 209.36770104 -0.08333766 C228.53652273 -0.10773939 247.70529823 -0.11733388 266.87413514 -0.11068493 C277.62958863 -0.1071951 288.38496584 -0.10940923 299.14040756 -0.12693596 C308.29621746 -0.14167135 317.45189736 -0.14227586 326.60770474 -0.12486505 C331.27568735 -0.11636373 335.94343785 -0.11418428 340.61140823 -0.1295166 C344.8912126 -0.14339952 349.1705868 -0.13855452 353.45036651 -0.11927737 C354.99198032 -0.11552807 356.53362889 -0.11840823 358.07521163 -0.12888902 C375.61209171 -0.23956404 390.08712586 4.44874187 403.03469849 16.38768005 C415.96016658 30.19289205 419.50124474 44.89227553 419.42237854 63.35298157 C419.42655748 64.9536365 419.43203807 66.55428847 419.43869835 68.154935 C419.45309816 72.52885449 419.44892541 76.90258468 419.44153154 81.27651429 C419.43678859 86.00328459 419.44931967 90.7300146 419.45954895 95.45677185 C419.47672023 104.70736965 419.47758042 113.95789948 419.47233605 123.20850907 C419.46829 130.72959558 419.46974307 138.25066204 419.4750843 145.77174759 C419.47583273 146.84334396 419.47658115 147.91494034 419.47735225 149.01900933 C419.47888377 151.19615395 419.48042212 153.37329857 419.48196722 155.55044319 C419.49568622 175.95428906 419.49025878 196.35809657 419.47878201 216.76194157 C419.46885031 235.41489342 419.48179029 254.06774606 419.5057162 272.72068261 C419.53011793 291.88950429 419.53971242 311.0582798 419.53306347 330.2271167 C419.52957364 340.9825702 419.53178777 351.73794741 419.5493145 362.49338913 C419.56404989 371.64919903 419.5646544 380.80487892 419.54724359 389.96068631 C419.53874227 394.62866892 419.53656282 399.29641941 419.55189514 403.9643898 C419.56577806 408.24419417 419.56093306 412.52356837 419.54165591 416.80334808 C419.53790661 418.34496189 419.54078677 419.88661046 419.55126756 421.4281932 C419.66194258 438.96507328 414.97363667 453.44010743 403.03469849 466.38768005 C389.22948649 479.31314815 374.53010301 482.85422631 356.06939697 482.77536011 C354.46874204 482.77953905 352.86809007 482.78501963 351.26744354 482.79167992 C346.89352405 482.80607972 342.51979386 482.80190698 338.14586425 482.79451311 C333.41909395 482.78977016 328.69236394 482.80230124 323.96560669 482.81253052 C314.71500889 482.8297018 305.46447906 482.83056199 296.21386947 482.82531761 C288.69278296 482.82127156 281.1717165 482.82272464 273.65063095 482.82806587 C272.04323639 482.82918851 272.04323639 482.82918851 270.40336921 482.83033382 C268.22622459 482.83186534 266.04907997 482.83340369 263.87193535 482.83494879 C243.46808948 482.84866779 223.06428197 482.84324035 202.66043697 482.83176357 C184.00748513 482.82183188 165.35463248 482.83477186 146.70169593 482.85869776 C127.53287425 482.8830995 108.36409874 482.89269398 89.19526184 482.88604504 C78.43980834 482.88255521 67.68443113 482.88476933 56.92898941 482.90229607 C47.77317951 482.91703145 38.61749962 482.91763597 29.46169223 482.90022516 C24.79370962 482.89172383 20.12595913 482.88954439 15.45798874 482.90487671 C11.17818437 482.91875963 6.89881017 482.91391463 2.61903046 482.89463747 C1.07741665 482.89088818 -0.46423192 482.89376833 -2.00581466 482.90424912 C-19.54269474 483.01492415 -34.01772889 478.32661824 -46.96530151 466.38768005 C-59.89076961 452.58246805 -63.43184777 437.88308457 -63.35298157 419.42237854 C-63.35716051 417.82172361 -63.36264109 416.22107164 -63.36930138 414.62042511 C-63.38370118 410.24650561 -63.37952844 405.87277543 -63.37213457 401.49884582 C-63.36739162 396.77207552 -63.3799227 392.04534551 -63.39015198 387.31858826 C-63.40732326 378.06799046 -63.40818345 368.81746063 -63.40293907 359.56685103 C-63.39889302 352.04576453 -63.4003461 344.52469807 -63.40568733 337.00361252 C-63.40643575 335.93201614 -63.40718418 334.86041977 -63.40795528 333.75635078 C-63.4094868 331.57920615 -63.41102515 329.40206153 -63.41257025 327.22491692 C-63.42628925 306.82107104 -63.42086181 286.41726354 -63.40938503 266.01341854 C-63.39945334 247.36046669 -63.41239332 228.70761405 -63.43631922 210.0546775 C-63.46072096 190.88585581 -63.47031544 171.71708031 -63.4636665 152.5482434 C-63.46017667 141.79278991 -63.46239079 131.0374127 -63.47991753 120.28197098 C-63.49465291 111.12616108 -63.49525743 101.97048118 -63.47784662 92.8146738 C-63.46934529 88.14669119 -63.46716585 83.47894069 -63.48249817 78.81097031 C-63.49638109 74.53116594 -63.49153609 70.25179174 -63.47225893 65.97201203 C-63.46850964 64.43039822 -63.47138979 62.88874965 -63.48187058 61.34716691 C-63.59254561 43.81028683 -58.9042397 29.33525268 -46.96530151 16.38768005 C-33.16008951 3.46221196 -18.46070603 -0.0788662 0 0 Z M-1.96530151 49.38768005 C-2.7632312 49.84529724 -3.56116089 50.30291443 -4.38327026 50.7743988 C-11.32217185 55.87518077 -15.56174984 62.12258291 -17.96530151 70.38768005 C-18.26132312 73.32983934 -18.26132312 73.32983934 -18.21977711 76.40793991 C-18.2256093 77.59807371 -18.23144149 78.78820751 -18.23745042 80.01440597 C-18.2336711 81.31303014 -18.22989177 82.61165431 -18.22599792 83.94963074 C-18.22901959 85.35011634 -18.23290914 86.75060029 -18.23759049 88.15108132 C-18.24787767 91.99478267 -18.24568683 95.83839081 -18.2414099 99.68209982 C-18.23894393 103.82947389 -18.24795532 107.97682545 -18.25544739 112.12419128 C-18.26820077 120.24815325 -18.26998722 128.37208218 -18.26764712 136.49605247 C-18.26586424 143.10051893 -18.26761298 149.70497536 -18.27187157 156.30944061 C-18.27246676 157.24936327 -18.27306194 158.18928592 -18.27367517 159.15769108 C-18.27488692 161.06716456 -18.27610106 162.97663805 -18.27731755 164.88611153 C-18.2881959 182.79664062 -18.28602941 200.7071509 -18.2799327 218.61768106 C-18.27476534 234.99674575 -18.2860137 251.37575094 -18.30503092 267.75480387 C-18.32441206 284.57641233 -18.3326647 301.39799265 -18.32890767 318.21961236 C-18.32699578 327.66214725 -18.32948183 337.10463151 -18.34362221 346.54715729 C-18.35554061 354.5872899 -18.35693586 362.62734073 -18.34483204 370.66747448 C-18.33894611 374.76794774 -18.33783592 378.86827147 -18.34983444 382.96873474 C-18.36070272 386.72670641 -18.35757879 390.48440387 -18.34357276 394.24236277 C-18.33968114 396.23690755 -18.35046534 398.23146455 -18.36186963 400.22598052 C-18.29191737 411.87958877 -16.34617156 420.94221756 -7.96530151 429.38768005 C-1.54448576 434.60249911 4.65840774 437.63505619 13.05495834 437.64215565 C14.24509214 437.64798784 15.43522594 437.65382003 16.6614244 437.65982896 C17.96004857 437.65604964 19.25867275 437.65227031 20.59664917 437.64837646 C21.99713477 437.65139813 23.39761872 437.65528768 24.79809976 437.65996903 C28.6418011 437.67025621 32.48540924 437.66806537 36.32911825 437.66378844 C40.47649232 437.66132247 44.62384388 437.67033386 48.77120972 437.67782593 C56.89517169 437.69057931 65.01910061 437.69236576 73.14307091 437.69002566 C79.74753736 437.68824278 86.35199379 437.68999152 92.95645905 437.69425011 C94.36634302 437.69514289 94.36634302 437.69514289 95.80470951 437.69605371 C97.71418299 437.69726546 99.62365648 437.6984796 101.53312996 437.69969609 C119.44365906 437.71057444 137.35416933 437.70840795 155.26469949 437.70231124 C171.64376418 437.69714388 188.02276937 437.70839224 204.4018223 437.72740946 C221.22343077 437.7467906 238.04501109 437.75504324 254.86663079 437.75128621 C264.30916568 437.74937432 273.75164994 437.75186037 283.19417572 437.76600075 C291.23430833 437.77791915 299.27435917 437.7793144 307.31449291 437.76721058 C311.41496617 437.76132465 315.5152899 437.76021446 319.61575317 437.77221298 C323.37372485 437.78308126 327.1314223 437.77995733 330.8893812 437.7659513 C332.88392598 437.76205968 334.87848298 437.77284388 336.87299895 437.78424817 C348.68729696 437.71333134 357.35998349 435.65013137 366.03469849 427.38768005 C374.20870202 418.72445935 374.47522581 407.66053257 374.42237854 396.33798218 C374.42655791 394.93332942 374.43203873 393.52868004 374.43869835 392.12403685 C374.45309214 388.28740268 374.44892741 384.45098444 374.44153154 380.61433876 C374.43678719 376.46772578 374.44932074 372.32115866 374.45954895 368.17456055 C374.47671625 360.06082733 374.47758143 351.94717163 374.47233605 343.83342498 C374.46829003 337.23809934 374.46974302 330.64279655 374.4750843 324.047472 C374.47583273 323.10780258 374.47658115 322.16813317 374.47735225 321.19998892 C374.47888376 319.29091584 374.48042211 317.38184276 374.48196722 315.47276969 C374.49568423 297.58418129 374.4902597 279.69563667 374.47878201 261.80704928 C374.46884569 245.44694317 374.48179861 229.08695009 374.5057162 212.72686141 C374.53010498 195.91755514 374.5397159 179.10830152 374.53306347 162.29897791 C374.52957138 152.86602239 374.53180295 143.43315384 374.5493145 134.00021172 C374.56403349 125.97220124 374.56467563 117.94433902 374.54724359 109.91633146 C374.53872961 105.82199038 374.53659375 101.72791418 374.55189514 97.63358688 C374.56574002 93.88253425 374.56098212 90.13197349 374.54165591 86.38094933 C374.53611908 84.387842 374.55016889 82.39470965 374.56501001 80.40164989 C374.4752814 69.46606401 371.40044676 61.49887756 364.03469849 53.38768005 C355.38266488 45.20332394 344.29410723 44.94721548 332.98500061 45 C331.58034785 44.99582063 330.17569847 44.99033981 328.77105528 44.98368019 C324.93442111 44.9692864 321.09800287 44.97345113 317.26135719 44.980847 C313.11474421 44.98559135 308.9681771 44.9730578 304.82157898 44.96282959 C296.70784577 44.94566229 288.59419007 44.94479711 280.48044341 44.95004249 C273.88511777 44.95408851 267.28981499 44.95263552 260.69449043 44.94729424 C259.75482102 44.94654581 258.8151516 44.94579739 257.84700735 44.94502629 C255.93793427 44.94349478 254.02886119 44.94195643 252.11978812 44.94041132 C234.23119972 44.92669431 216.3426551 44.93211884 198.45406771 44.94359653 C182.0939616 44.95353285 165.73396852 44.94057993 149.37387984 44.91666234 C132.56457357 44.89227356 115.75531995 44.88266264 98.94599634 44.88931507 C89.51304083 44.89280716 80.08017228 44.89057559 70.64723015 44.87306404 C62.61921967 44.85834505 54.59135745 44.85770291 46.5633499 44.87513495 C42.46900881 44.88364893 38.37493261 44.88578479 34.28060532 44.8704834 C30.52955268 44.85663852 26.77899192 44.86139642 23.02796776 44.88072263 C21.03486044 44.88625946 19.04172808 44.87220965 17.04866832 44.85736853 C9.80469202 44.91680677 4.34238043 45.73707937 -1.96530151 49.38768005 Z " fill="#DADADB" transform="translate(77.96530151367188,14.612319946289063)"/>
<path d="M0 0 C43.23 0 86.46 0 131 0 C131.020625 21.429375 131.04125 42.85875 131.0625 64.9375 C131.071604 71.71531006 131.08070801 78.49312012 131.09008789 85.47631836 C131.09460449 93.72375488 131.09460449 93.72375488 131.09544373 97.57911682 C131.09698393 100.28409116 131.10014125 102.98901961 131.10557556 105.69398499 C131.11367703 109.78029259 131.11390759 113.86656525 131.11352539 117.95288086 C131.1171235 119.16716987 131.12072161 120.38145887 131.12442875 121.63254452 C131.12305125 122.72547093 131.12167376 123.81839735 131.12025452 124.94444275 C131.12163721 126.38105711 131.12163721 126.38105711 131.12304783 127.84669399 C131 130 131 130 130 131 C128.31708304 131.09616807 126.63010439 131.12187691 124.94444275 131.12025452 C123.85151633 131.12163201 122.75858992 131.12300951 121.63254452 131.12442875 C120.41825551 131.12083064 119.2039665 131.11723253 117.95288086 131.11352539 C116.66417619 131.11364593 115.37547152 131.11376646 114.04771519 131.11389065 C110.55044491 131.11411712 107.05320859 131.10830626 103.55594635 131.10128021 C100.27855012 131.09560036 97.00115545 131.09531792 93.72375488 131.09460449 C84.12833206 131.08934968 74.53291561 131.07538863 64.9375 131.0625 C32.7934375 131.0315625 32.7934375 131.0315625 0 131 C0 87.77 0 44.54 0 0 Z " fill="#488EF6" transform="translate(191,191)"/>
<path d="M0 0 C42.9 0 85.8 0 130 0 C130 42.57 130 85.14 130 129 C87.1 129 44.2 129 0 129 C0 86.43 0 43.86 0 0 Z " fill="#3275C6" transform="translate(191,322)"/>
<path d="M0 0 C42.57 0 85.14 0 129 0 C129 42.9 129 85.8 129 130 C86.43 130 43.86 130 0 130 C0 87.1 0 44.2 0 0 Z " fill="#3275C6" transform="translate(322,191)"/>
<path d="M0 0 C42.57 0 85.14 0 129 0 C129 42.9 129 85.8 129 130 C86.43 130 43.86 130 0 130 C0 87.1 0 44.2 0 0 Z " fill="#3275C6" transform="translate(61,191)"/>
<path d="M0 0 C42.9 0 85.8 0 130 0 C130 42.57 130 85.14 130 129 C87.1 129 44.2 129 0 129 C0 86.43 0 43.86 0 0 Z " fill="#3275C6" transform="translate(191,61)"/>
<path d="M0 0 C42.57 0 85.14 0 129 0 C129 42.57 129 85.14 129 129 C111.345 129.0825 93.69 129.165 75.5 129.25 C69.93447266 129.28641602 64.36894531 129.32283203 58.63476562 129.36035156 C51.81542969 129.37841797 51.81542969 129.37841797 48.61853027 129.3817749 C46.39551589 129.38789949 44.17251444 129.40193108 41.94958496 129.42230225 C38.5735786 129.45168195 35.19838112 129.45562073 31.82226562 129.45410156 C30.34776821 129.47569021 30.34776821 129.47569021 28.84348297 129.497715 C20.20715468 129.44586959 13.99755601 126.51511317 7.60546875 120.78125 C3.04415449 115.72052177 -0.12827761 109.42080114 -0.12025452 102.57710266 C-0.12163201 101.67454144 -0.12300951 100.77198023 -0.12442875 99.84206867 C-0.12083064 98.85044822 -0.11723253 97.85882776 -0.11352539 96.8371582 C-0.11364593 95.77619273 -0.11376646 94.71522726 -0.11389065 93.62211132 C-0.11314319 90.18164677 -0.10552249 86.74123613 -0.09765625 83.30078125 C-0.09618632 81.17915879 -0.09516592 79.05753598 -0.09460449 76.93591309 C-0.08935758 69.06143653 -0.07539643 61.18696774 -0.0625 53.3125 C-0.041875 35.719375 -0.02125 18.12625 0 0 Z " fill="#488FF6" transform="translate(61,322)"/>
<path d="M0 0 C7.20398411 5.07082469 11.62785597 11.94551836 14.99609375 20 C16.84690054 31.72177631 15.38748227 41.6173248 8.37109375 51.375 C1.97821993 58.99465131 -6.38708936 63.77868701 -16.2890625 64.87890625 C-26.88216185 65.30263022 -35.41708348 62.2239388 -43.5078125 55.40234375 C-50.74371282 48.51727496 -54.5652793 39.56228904 -54.94140625 29.5625 C-54.53199829 19.35371444 -50.60561214 10.81148939 -43.44140625 3.5625 C-30.463704 -7.27993131 -14.6263498 -8.61199476 0 0 Z " fill="#498FF6" transform="translate(275.44140625,226.4375)"/>
<path d="M0 0 C8.55393507 6.14055439 13.56574639 14.16110807 15.52734375 24.4921875 C16.74709474 34.38572329 13.50315485 43.65505819 7.52734375 51.4921875 C2.32443082 58.02987914 -4.12586255 62.56104408 -12.53613281 63.79492188 C-24.30473382 64.92065905 -33.42193733 63.14672446 -42.83984375 55.59375 C-50.7130586 48.29732745 -54.34388764 39.30920514 -54.84765625 28.6796875 C-54.59195713 18.87287405 -50.30807909 10.39488812 -43.47265625 3.4921875 C-30.40560278 -7.24817839 -14.72724072 -8.98059229 0 0 Z " fill="#3375C6" transform="translate(275.47265625,94.5078125)"/>
<path d="M0 0 C112.2 0 224.4 0 340 0 C340 0.33 340 0.66 340 1 C306.01 1 272.02 1 237 1 C237 43.57 237 86.14 237 130 C279.57 130 322.14 130 366 130 C366 95.35 366 60.7 366 25 C366.33 25 366.66 25 367 25 C367 137.2 367 249.4 367 365 C366.67 365 366.34 365 366 365 C366 331.01 366 297.02 366 262 C323.43 262 280.86 262 237 262 C237 304.57 237 347.14 237 391 C270.99 391 304.98 391 340 391 C340 391.33 340 391.66 340 392 C227.8 392 115.6 392 0 392 C0 391.67 0 391.34 0 391 C34.65 391 69.3 391 105 391 C105 348.43 105 305.86 105 262 C62.43 262 19.86 262 -24 262 C-24 295.99 -24 329.98 -24 365 C-24.33 365 -24.66 365 -25 365 C-25 252.8 -25 140.6 -25 25 C-24.67 25 -24.34 25 -24 25 C-24 59.65 -24 94.3 -24 130 C18.57 130 61.14 130 105 130 C105 87.43 105 44.86 105 1 C70.35 1 35.7 1 0 1 C0 0.67 0 0.34 0 0 Z M106 1 C106 43.57 106 86.14 106 130 C148.9 130 191.8 130 236 130 C236 87.43 236 44.86 236 1 C193.1 1 150.2 1 106 1 Z M-24 131 C-24 173.9 -24 216.8 -24 261 C18.57 261 61.14 261 105 261 C105 218.1 105 175.2 105 131 C62.43 131 19.86 131 -24 131 Z M106 131 C106 216.8 106 302.6 106 391 C148.9 391 191.8 391 236 391 C236 348.1 236 305.2 236 261 C278.9 261 321.8 261 366 261 C366 218.1 366 175.2 366 131 C280.2 131 194.4 131 106 131 Z " fill="#6298E3" transform="translate(85,60)"/>
<path d="M0 0 C7.20398411 5.07082469 11.62785597 11.94551836 14.99609375 20 C16.84690054 31.72177631 15.38748227 41.6173248 8.37109375 51.375 C1.97821993 58.99465131 -6.38708936 63.77868701 -16.2890625 64.87890625 C-26.88216185 65.30263022 -35.41708348 62.2239388 -43.5078125 55.40234375 C-50.74371282 48.51727496 -54.5652793 39.56228904 -54.94140625 29.5625 C-54.53199829 19.35371444 -50.60561214 10.81148939 -43.44140625 3.5625 C-30.463704 -7.27993131 -14.6263498 -8.61199476 0 0 Z M-42.03515625 13.54296875 C-46.90755525 20.54027509 -47.33945717 27.24796112 -46.44140625 35.5625 C-44.5201067 42.77008699 -40.33458807 48.77156203 -34.2890625 53.10546875 C-27.53192963 57.01518745 -21.11805426 57.59311648 -13.44140625 56.5625 C-6.54277111 54.69433708 0.01090465 50.6434488 3.84375 44.50390625 C7.8751854 36.62888011 9.28212279 28.40155867 6.72265625 19.73046875 C3.40156071 12.47532379 -1.82293518 6.95430327 -9.12890625 3.625 C-21.94188632 -0.37748297 -33.80354218 3.0787235 -42.03515625 13.54296875 Z " fill="#D4D7DC" transform="translate(275.44140625,226.4375)"/>
<path d="M0 0 C8.55393507 6.14055439 13.56574639 14.16110807 15.52734375 24.4921875 C16.74709474 34.38572329 13.50315485 43.65505819 7.52734375 51.4921875 C2.32443082 58.02987914 -4.12586255 62.56104408 -12.53613281 63.79492188 C-24.30473382 64.92065905 -33.42193733 63.14672446 -42.83984375 55.59375 C-50.7130586 48.29732745 -54.34388764 39.30920514 -54.84765625 28.6796875 C-54.59195713 18.87287405 -50.30807909 10.39488812 -43.47265625 3.4921875 C-30.40560278 -7.24817839 -14.72724072 -8.98059229 0 0 Z M-41 11.52734375 C-45.82296294 17.96222534 -47.2625632 24.11033626 -46.98046875 32.140625 C-45.84219954 39.65320176 -42.54148821 46.30113823 -36.53515625 51.0546875 C-35.20407246 51.90447545 -33.85057799 52.72065961 -32.47265625 53.4921875 C-31.40015625 54.1109375 -30.32765625 54.7296875 -29.22265625 55.3671875 C-21.4030379 57.713073 -14.63327523 57.42601937 -7.16015625 54.0546875 C-0.54764544 50.38877391 3.87446751 45.63838554 6.6796875 38.6015625 C8.63448379 31.43097336 8.6260175 23.94052969 5.52734375 17.1171875 C1.72357006 10.52755138 -3.8593906 5.23728064 -11.21484375 2.9296875 C-22.44648082 0.75331492 -33.19140756 2.79574984 -41 11.52734375 Z " fill="#D4D7DA" transform="translate(275.47265625,94.5078125)"/>
<path d="M0 0 C4.06067733 0.58428027 6.05128877 3.02299147 8.7668457 5.87304688 C9.58858528 6.70539856 9.58858528 6.70539856 10.42692566 7.55456543 C12.17081948 9.32640702 13.896514 11.11484477 15.62231445 12.90429688 C16.8027957 14.10986031 17.98442389 15.3143018 19.16723633 16.51757812 C22.06155661 19.46697278 24.9396768 22.43137193 27.80981445 25.40429688 C31.76017338 23.81354057 34.13996719 21.2290906 37.0559082 18.17773438 C38.06784534 17.13564739 39.08022876 16.09399364 40.09301758 15.05273438 C41.67599765 13.41389599 43.25474898 11.77148631 44.82568359 10.12109375 C46.34962609 8.52460522 47.8888417 6.94419603 49.4309082 5.36523438 C50.34283936 4.41438965 51.25477051 3.46354492 52.19433594 2.48388672 C54.80981445 0.40429688 54.80981445 0.40429688 57.58349609 0.03173828 C59.80981445 0.40429688 59.80981445 0.40429688 60.80981445 1.40429688 C61.21411133 3.59448242 61.21411133 3.59448242 60.80981445 6.40429688 C59.04716654 8.60291887 57.36437214 10.43350342 55.34106445 12.36132812 C54.50871277 13.1830677 54.50871277 13.1830677 53.6595459 14.02140808 C51.88770431 15.7653019 50.09926656 17.49099642 48.30981445 19.21679688 C47.10425102 20.39727812 45.89980952 21.57890631 44.6965332 22.76171875 C41.74713855 25.65603903 38.7827394 28.53415922 35.80981445 31.40429688 C37.40057076 35.3546558 39.98502072 37.73444961 43.03637695 40.65039062 C44.07846393 41.66232776 45.12011769 42.67471118 46.16137695 43.6875 C47.80021533 45.27048007 49.44262502 46.8492314 51.09301758 48.42016602 C52.68950611 49.94410851 54.2699153 51.48332412 55.84887695 53.02539062 C56.79972168 53.93732178 57.75056641 54.84925293 58.73022461 55.78881836 C60.80981445 58.40429688 60.80981445 58.40429688 61.18237305 61.17797852 C60.80981445 63.40429688 60.80981445 63.40429688 59.80981445 64.40429688 C57.61962891 64.80859375 57.61962891 64.80859375 54.80981445 64.40429688 C52.61119245 62.64164896 50.78060791 60.95885456 48.8527832 58.93554688 C48.30495682 58.38064575 47.75713043 57.82574463 47.19270325 57.25402832 C45.44880943 55.48218673 43.72311491 53.69374898 41.99731445 51.90429688 C40.81683321 50.69873344 39.63520502 49.49429195 38.45239258 48.29101562 C35.5580723 45.34162097 32.6799521 42.37722182 29.80981445 39.40429688 C25.85945553 40.99505318 23.47966171 43.57950315 20.5637207 46.63085938 C19.55178357 47.67294636 18.53940014 48.71460011 17.52661133 49.75585938 C15.94363125 51.39469776 14.36487993 53.03710744 12.79394531 54.6875 C11.27000282 56.28398853 9.73078721 57.86439772 8.1887207 59.44335938 C7.27678955 60.3942041 6.3648584 61.34504883 5.42529297 62.32470703 C2.80981445 64.40429688 2.80981445 64.40429688 0.03613281 64.77685547 C-2.19018555 64.40429688 -2.19018555 64.40429688 -3.19018555 63.40429688 C-3.59448242 61.21411133 -3.59448242 61.21411133 -3.19018555 58.40429688 C-1.42753763 56.20567488 0.25525677 54.37509033 2.27856445 52.44726562 C2.83346558 51.89943924 3.3883667 51.35161285 3.96008301 50.78718567 C5.73192459 49.04329185 7.52036234 47.31759733 9.30981445 45.59179688 C10.51537789 44.41131563 11.71981938 43.22968744 12.9230957 42.046875 C15.87249036 39.15255472 18.8368895 36.27443453 21.80981445 33.40429688 C20.21905815 29.45393795 17.63460818 27.07414414 14.58325195 24.15820312 C13.54116497 23.14626599 12.49951122 22.13388257 11.45825195 21.12109375 C9.81941357 19.53811368 8.17700389 17.95936235 6.52661133 16.38842773 C4.93012279 14.86448524 3.34971361 13.32526963 1.77075195 11.78320312 C0.81990723 10.87127197 -0.1309375 9.95934082 -1.1105957 9.01977539 C-3.19018555 6.40429688 -3.19018555 6.40429688 -3.56274414 3.63061523 C-3.06996267 0.68587456 -2.93106377 0.54105915 0 0 Z " fill="#F6F9FC" transform="translate(227.190185546875,353.595703125)"/>
<path d="M0 0 C5.0557723 0.20682961 7.6397847 3.11772012 10.95703125 6.56640625 C11.77877083 7.39663551 11.77877083 7.39663551 12.61711121 8.24363708 C14.35854752 10.00740011 16.08553359 11.78457787 17.8125 13.5625 C18.99321296 14.76328265 20.17484384 15.96316348 21.35742188 17.16210938 C24.24902269 20.09772829 27.12774531 23.04545482 30 26 C34.2207507 22.54404472 38.09949206 18.93658765 41.8828125 15.00390625 C42.74003906 14.11638672 43.59726562 13.22886719 44.48046875 12.31445312 C46.26092532 10.46167372 48.03161792 8.59946735 49.79296875 6.72851562 C50.64761719 5.85001953 51.50226563 4.97152344 52.3828125 4.06640625 C53.14996582 3.26146729 53.91711914 2.45652832 54.70751953 1.62719727 C57 0 57 0 59.78857422 0.24584961 C60.51834473 0.49471924 61.24811523 0.74358887 62 1 C62.64207458 2.82244873 62.64207458 2.82244873 63 5 C61.20697454 7.24075226 59.4713629 9.10960745 57.41015625 11.078125 C56.54238808 11.93528107 56.54238808 11.93528107 55.65708923 12.80975342 C53.80360836 14.63520826 51.93351774 16.44254074 50.0625 18.25 C48.80420672 19.48322123 47.54703003 20.71758286 46.29101562 21.953125 C43.2068192 24.98214309 40.10761192 27.99501728 37 31 C38.58781045 35.00519733 41.41201482 37.5691058 44.48046875 40.46484375 C45.5728359 41.52219761 46.66461548 42.58015879 47.75585938 43.63867188 C49.47475214 45.2954983 51.19776396 46.94721793 52.93139648 48.58862305 C54.60710898 50.17980193 56.26344732 51.78918103 57.91796875 53.40234375 C58.44182663 53.88895981 58.96568451 54.37557587 59.50541687 54.87693787 C60.94213867 56.29272461 60.94213867 56.29272461 63 59 C62.81762695 61.84985352 62.81762695 61.84985352 62 64 C59.87231445 64.34179688 59.87231445 64.34179688 57 64 C54.801378 62.23735209 52.97079345 60.55455769 51.04296875 58.53125 C50.49514236 57.97634888 49.94731598 57.42144775 49.38288879 56.84973145 C47.63899497 55.07788986 45.91330046 53.28945211 44.1875 51.5 C43.00701876 50.29443656 41.82539056 49.08999507 40.64257812 47.88671875 C37.74825784 44.93732409 34.87013765 41.97292495 32 39 C29.02183282 40.42432416 27.02068318 41.77903265 24.75 44.1875 C21.68218654 47.3532224 18.46633139 50.23161266 15.11328125 53.08984375 C11.93629262 55.96146564 9.06233225 59.11638571 6.17578125 62.27734375 C3.56799189 64.34203874 2.24453918 64.36934334 -1 64 C-1.84936523 61.88598633 -1.84936523 61.88598633 -2 59 C-0.20556626 56.66787212 1.47377636 54.82609882 3.58984375 52.82421875 C4.16835587 52.25419632 4.74686798 51.68417389 5.34291077 51.09687805 C7.19417761 49.27920227 9.06519952 47.48347801 10.9375 45.6875 C12.19601965 44.45907222 13.45319916 43.22926985 14.70898438 41.99804688 C17.7906647 38.98252653 20.89022803 35.98653134 24 33 C22.40914564 28.99244116 19.58215781 26.40879382 16.51953125 23.5 C15.42731789 22.43792814 14.3355336 21.37541488 13.24414062 20.3125 C11.52396909 18.64827902 9.80020443 16.98826731 8.06860352 15.3359375 C6.39532605 13.73497825 4.73791456 12.1189165 3.08203125 10.5 C2.55817337 10.00822266 2.03431549 9.51644531 1.49458313 9.00976562 C0.05786133 7.59375 0.05786133 7.59375 -2 5 C-1.87720349 2.66311495 -1.64744549 1.64744549 0 0 Z " fill="#FCFDFE" transform="translate(356,94)"/>
<path d="M0 0 C2.13647461 -0.34399414 2.13647461 -0.34399414 5 0 C7.15343978 1.77778522 8.93659227 3.47070342 10.81640625 5.50390625 C11.35474594 6.06117905 11.89308563 6.61845184 12.44773865 7.19261169 C14.16516515 8.9710718 15.86549608 10.76455547 17.5625 12.5625 C19.79953223 14.93218132 22.05234106 17.28507339 24.31640625 19.62890625 C24.82692032 20.18091202 25.33743439 20.73291779 25.86341858 21.301651 C28.47055541 24.11936882 28.47055541 24.11936882 32.01367188 25.16992188 C34.95018884 23.44035092 37.15117796 21.11359243 39.46484375 18.65234375 C40.52252858 17.56159884 41.58047946 16.47111186 42.63867188 15.38085938 C44.29327296 13.65788025 45.94358762 11.93109013 47.58862305 10.19897461 C49.18235791 8.52675407 50.79120431 6.87027644 52.40234375 5.21484375 C53.13226784 4.43209328 53.13226784 4.43209328 53.87693787 3.63352966 C56.20355203 1.256815 57.48671728 0.05870234 60.84985352 -0.32592773 C61.55940186 -0.21837158 62.2689502 -0.11081543 63 0 C63.84936523 2.11401367 63.84936523 2.11401367 64 5 C62.20556626 7.33212788 60.52622364 9.17390118 58.41015625 11.17578125 C57.54238808 12.0308149 57.54238808 12.0308149 56.65708923 12.90312195 C54.80582239 14.72079773 52.93480048 16.51652199 51.0625 18.3125 C49.80398035 19.54092778 48.54680084 20.77073015 47.29101562 22.00195312 C44.2093353 25.01747347 41.10977197 28.01346866 38 31 C39.59085436 35.00755884 42.41784219 37.59120618 45.48046875 40.5 C46.57268211 41.56207186 47.6644664 42.62458512 48.75585938 43.6875 C50.47603091 45.35172098 52.19979557 47.01173269 53.93139648 48.6640625 C55.60467395 50.26502175 57.26208544 51.8810835 58.91796875 53.5 C59.44182663 53.99177734 59.96568451 54.48355469 60.50541687 54.99023438 C61.94213867 56.40625 61.94213867 56.40625 64 59 C63.81762695 61.34375 63.81762695 61.34375 63 63 C60.86352539 63.83789062 60.86352539 63.83789062 58 64 C55.78257945 62.2593297 54.06676102 60.64969432 52.18359375 58.59375 C51.64525406 58.03506226 51.10691437 57.47637451 50.55226135 56.90075684 C48.83235678 55.11413297 47.13335072 53.30945183 45.4375 51.5 C43.73724764 49.69148648 42.03300734 47.88805488 40.31202698 46.09924316 C39.2411712 44.98593285 38.18221011 43.86103578 37.13658142 42.72399902 C34.53370819 39.88966914 34.53370819 39.88966914 30.98632812 38.82568359 C28.04444279 40.56492505 25.84763503 42.90798051 23.53515625 45.3828125 C22.47762772 46.47826458 21.41967196 47.57330434 20.36132812 48.66796875 C18.70531171 50.39857606 17.05443933 52.13355053 15.41137695 53.87646484 C13.81991639 55.55841137 12.2104052 57.22130489 10.59765625 58.8828125 C10.11104019 59.40980743 9.62442413 59.93680237 9.12306213 60.47976685 C7.70727539 61.92626953 7.70727539 61.92626953 5 64 C2.15014648 63.81982422 2.15014648 63.81982422 0 63 C-0.64207458 61.17755127 -0.64207458 61.17755127 -1 59 C0.79302546 56.75924774 2.5286371 54.89039255 4.58984375 52.921875 C5.16835587 52.35043762 5.74686798 51.77900024 6.34291077 51.19024658 C8.19639164 49.36479174 10.06648226 47.55745926 11.9375 45.75 C13.19579328 44.51677877 14.45296997 43.28241714 15.70898438 42.046875 C18.7931808 39.01785691 21.89238808 36.00498272 25 33 C23.41218955 28.99480267 20.58798518 26.4308942 17.51953125 23.53515625 C16.4271641 22.47780239 15.33538452 21.41984121 14.24414062 20.36132812 C12.52524786 18.7045017 10.80223604 17.05278207 9.06860352 15.41137695 C7.39289102 13.82019807 5.73655268 12.21081897 4.08203125 10.59765625 C3.55817337 10.11104019 3.03431549 9.62442413 2.49458313 9.12306213 C1.05786133 7.70727539 1.05786133 7.70727539 -1 5 C-0.81762695 2.15014648 -0.81762695 2.15014648 0 0 Z " fill="#FDFDFE" transform="translate(355,354)"/>
<path d="M0 0 C5.0557723 0.20682961 7.6397847 3.11772012 10.95703125 6.56640625 C11.77877083 7.39663551 11.77877083 7.39663551 12.61711121 8.24363708 C14.35854752 10.00740011 16.08553359 11.78457787 17.8125 13.5625 C18.99321296 14.76328265 20.17484384 15.96316348 21.35742188 17.16210938 C24.24902269 20.09772829 27.12774531 23.04545482 30 26 C34.2207507 22.54404472 38.09949206 18.93658765 41.8828125 15.00390625 C42.74003906 14.11638672 43.59726563 13.22886719 44.48046875 12.31445312 C46.26092532 10.46167372 48.03161792 8.59946735 49.79296875 6.72851562 C50.64761719 5.85001953 51.50226563 4.97152344 52.3828125 4.06640625 C53.14996582 3.26146729 53.91711914 2.45652832 54.70751953 1.62719727 C57 0 57 0 59.78857422 0.24584961 C60.51834473 0.49471924 61.24811523 0.74358887 62 1 C62.64207458 2.82244873 62.64207458 2.82244873 63 5 C61.20697454 7.24075226 59.4713629 9.10960745 57.41015625 11.078125 C56.54238808 11.93528107 56.54238808 11.93528107 55.65708923 12.80975342 C53.80360836 14.63520826 51.93351774 16.44254074 50.0625 18.25 C48.80420672 19.48322123 47.54703003 20.71758286 46.29101562 21.953125 C43.2068192 24.98214309 40.10761192 27.99501728 37 31 C38.58781045 35.00519733 41.41201482 37.5691058 44.48046875 40.46484375 C45.5728359 41.52219761 46.66461548 42.58015879 47.75585938 43.63867188 C49.47475214 45.2954983 51.19776396 46.94721793 52.93139648 48.58862305 C54.60710898 50.17980193 56.26344732 51.78918103 57.91796875 53.40234375 C58.44182663 53.88895981 58.96568451 54.37557587 59.50541687 54.87693787 C60.94213867 56.29272461 60.94213867 56.29272461 63 59 C62.81762695 61.84985352 62.81762695 61.84985352 62 64 C59.86352539 64.34399414 59.86352539 64.34399414 57 64 C54.84656022 62.22221478 53.06340773 60.52929658 51.18359375 58.49609375 C50.64525406 57.93882095 50.10691437 57.38154816 49.55226135 56.80738831 C47.83483485 55.0289282 46.13450392 53.23544453 44.4375 51.4375 C42.20046777 49.06781868 39.94765894 46.71492661 37.68359375 44.37109375 C37.17307968 43.81908798 36.66256561 43.26708221 36.13658142 42.698349 C33.52944459 39.88063118 33.52944459 39.88063118 29.98632812 38.83007812 C27.04981116 40.55964908 24.84882204 42.88640757 22.53515625 45.34765625 C21.47747142 46.43840116 20.41952054 47.52888814 19.36132812 48.61914062 C17.70672704 50.34211975 16.05641238 52.06890987 14.41137695 53.80102539 C12.81764209 55.47324593 11.20879569 57.12972356 9.59765625 58.78515625 C9.11104019 59.3069899 8.62442413 59.82882355 8.12306213 60.36647034 C5.79644797 62.743185 4.51328272 63.94129766 1.15014648 64.32592773 C0.44059814 64.21837158 -0.2689502 64.11081543 -1 64 C-1.84936523 61.88598633 -1.84936523 61.88598633 -2 59 C-0.20556626 56.66787212 1.47377636 54.82609882 3.58984375 52.82421875 C4.16835587 52.25419632 4.74686798 51.68417389 5.34291077 51.09687805 C7.19417761 49.27920227 9.06519952 47.48347801 10.9375 45.6875 C12.19601965 44.45907222 13.45319916 43.22926985 14.70898438 41.99804688 C17.7906647 38.98252653 20.89022803 35.98653134 24 33 C22.40914564 28.99244116 19.58215781 26.40879382 16.51953125 23.5 C15.42731789 22.43792814 14.3355336 21.37541488 13.24414062 20.3125 C11.52396909 18.64827902 9.80020443 16.98826731 8.06860352 15.3359375 C6.39532605 13.73497825 4.73791456 12.1189165 3.08203125 10.5 C2.55817337 10.00822266 2.03431549 9.51644531 1.49458313 9.00976562 C0.05786133 7.59375 0.05786133 7.59375 -2 5 C-1.87720349 2.66311495 -1.64744549 1.64744549 0 0 Z " fill="#FDFEFE" transform="translate(95,94)"/>
</svg>
